{
  "accessors": [
    {
      "bufferView": 2,
      "componentType": 5126,
      "count": 65532,
      "max": [
        0.13318878412246704,
        0.2316838800907135,
        -0.07728905975818634
      ],
      "min": [
        -0.07132954150438309,
        0.016290249302983284,
        -0.32998836040496826
      ],
      "type": "VEC3"
    },
    {
      "bufferView": 2,
      "byteOffset": 786384,
      "componentType": 5126,
      "count": 65532,
      "max": [
        0.9999179244041443,
        0.9999572038650513,
        0.9999905824661255
      ],
      "min": [
        -0.9999793171882629,
        -0.9996577501296997,
        -0.9999861121177673
      ],
      "type": "VEC3"
    },
    {
      "bufferView": 1,
      "componentType": 5126,
      "count": 65532,
      "max": [
        0.9997377991676331,
        0.9997553825378418
      ],
      "min": [
        0.000244140625,
        0.01782238483428955
      ],
      "type": "VEC2"
    },
    {
      "bufferView": 0,
      "componentType": 5125,
      "count": 246873,
      "type": "SCALAR"
    },
    {
      "bufferView": 2,
      "byteOffset": 1572768,
      "componentType": 5126,
      "count": 65532,
      "max": [
        0.13619162142276764,
        0.20875635743141174,
        -0.07297922670841217
      ],
      "min": [
        -0.031078170984983444,
        0.05625665932893753,
        -0.30377396941185
      ],
      "type": "VEC3"
    },
    {
      "bufferView": 2,
      "byteOffset": 2359152,
      "componentType": 5126,
      "count": 65532,
      "max": [
        0.999907910823822,
        0.9999858140945435,
        0.9999917149543762
      ],
      "min": [
        -0.9999473690986633,
        -0.9996562600135803,
        -0.9999394416809082
      ],
      "type": "VEC3"
    },
    {
      "bufferView": 1,
      "byteOffset": 524256,
      "componentType": 5126,
      "count": 65532,
      "max": [
        0.9997403025627136,
        0.9997482299804688
      ],
      "min": [
        0.000244140625,
        0.02172863483428955
      ],
      "type": "VEC2"
    },
    {
      "bufferView": 0,
      "byteOffset": 987492,
      "componentType": 5125,
      "count": 234540,
      "type": "SCALAR"
    },
    {
      "bufferView": 2,
      "byteOffset": 3145536,
      "componentType": 5126,
      "count": 65532,
      "max": [
        0.13619162142276764,
        0.22065690159797668,
        -0.07297922670841217
      ],
      "min": [
        -0.14840993285179138,
        0.03829166665673256,
        -0.32998836040496826
      ],
      "type": "VEC3"
    },
    {
      "bufferView": 2,
      "byteOffset": 3931920,
      "componentType": 5126,
      "count": 65532,
      "max": [
        0.9999677538871765,
        0.9998477101325989,
        0.9999451637268066
      ],
      "min": [
        -0.9999625086784363,
        -0.9997269511222839,
        -0.999941349029541
      ],
      "type": "VEC3"
    },
    {
      "bufferView": 1,
      "byteOffset": 1048512,
      "componentType": 5126,
      "count": 65532,
      "max": [
        0.9997420310974121,
        0.999755322933197
      ],
      "min": [
        0.000244140625,
        0.02075207233428955
      ],
      "type": "VEC2"
    },
    {
      "bufferView": 0,
      "byteOffset": 1925652,
      "componentType": 5125,
      "count": 226026,
      "type": "SCALAR"
    },
    {
      "bufferView": 2,
      "byteOffset": 4718304,
      "componentType": 5126,
      "count": 65532,
      "max": [
        0.20209220051765442,
        0.20308122038841248,
        -0.02350718341767788
      ],
      "min": [
        -0.13453006744384766,
        -0.051958270370960236,
        -0.4128921926021576
      ],
      "type": "VEC3"
    },
    {
      "bufferView": 2,
      "byteOffset": 5504688,
      "componentType": 5126,
      "count": 65532,
      "max": [
        0.9999804496765137,
        0.9999982118606567,
        0.9999913573265076
      ],
      "min": [
        -0.9999160170555115,
        -0.9984632730484009,
        -0.9999861121177673
      ],
      "type": "VEC3"
    },
    {
      "bufferView": 1,
      "byteOffset": 1572768,
      "componentType": 5126,
      "count": 65532,
      "max": [
        0.9996804594993591,
        0.9997528791427612
      ],
      "min": [
        0.000244140625,
        0.01879894733428955
      ],
      "type": "VEC2"
    },
    {
      "bufferView": 0,
      "byteOffset": 2829756,
      "componentType": 5125,
      "count": 259608,
      "type": "SCALAR"
    },
    {
      "bufferView": 2,
      "byteOffset": 6291072,
      "componentType": 5126,
      "count": 65532,
      "max": [
        0.20626819133758545,
        0.06657839566469193,
        -0.023183725774288177
      ],
      "min": [
        -0.17323316633701324,
        -0.05242583528161049,
        -0.41229891777038574
      ],
      "type": "VEC3"
    },
    {
      "bufferView": 2,
      "byteOffset": 7077456,
      "componentType": 5126,
      "count": 65532,
      "max": [
        0.9972283244132996,
        0.9999998211860657,
        0.9997931718826294
      ],
      "min": [
        -0.9996229410171509,
        -0.9354193210601807,
        -0.999904453754425
      ],
      "type": "VEC3"
    },
    {
      "bufferView": 1,
      "byteOffset": 2097024,
      "componentType": 5126,
      "count": 65532,
      "max": [
        0.9997508525848389,
        0.9997419714927673
      ],
      "min": [
        0.000244140625,
        0.02270519733428955
      ],
      "type": "VEC2"
    },
    {
      "bufferView": 0,
      "byteOffset": 3868188,
      "componentType": 5125,
      "count": 305763,
      "type": "SCALAR"
    },
    {
      "bufferView": 2,
      "byteOffset": 7863840,
      "componentType": 5126,
      "count": 65532,
      "max": [
        0.20885944366455078,
        0.16841866075992584,
        -0.025021210312843323
      ],
      "min": [
        -0.1783723533153534,
        -0.052802905440330505,
        -0.41348862648010254
      ],
      "type": "VEC3"
    },
    {
      "bufferView": 2,
      "byteOffset": 8650224,
      "componentType": 5126,
      "count": 65532,
      "max": [
        0.9999993443489075,
        0.9999980926513672,
        0.9998484253883362
      ],
      "min": [
        -0.9999387860298157,
        -0.9984102845191956,
        -0.999904453754425
      ],
      "type": "VEC3"
    },
    {
      "bufferView": 1,
      "byteOffset": 2621280,
      "componentType": 5126,
      "count": 65532,
      "max": [
        0.9997261762619019,
        0.9997518658638
      ],
      "min": [
        0.000244140625,
        0.02075207233428955
      ],
      "type": "VEC2"
    },
    {
      "bufferView": 0,
      "byteOffset": 5091240,
      "componentType": 5125,
      "count": 245037,
      "type": "SCALAR"
    },
    {
      "bufferView": 2,
      "byteOffset": 9436608,
      "componentType": 5126,
      "count": 12824,
      "max": [
        0.12586286664009094,
        0.20247337222099304,
        -0.07801704108715057
      ],
      "min": [
        -0.14241497218608856,
        0.05672300606966019,
        -0.32873743772506714
      ],
      "type": "VEC3"
    },
    {
      "bufferView": 2,
      "byteOffset": 9590496,
      "componentType": 5126,
      "count": 12824,
      "max": [
        0.9997238516807556,
        0.9999852180480957,
        0.9999423623085022
      ],
      "min": [
        -0.9999256730079651,
        -0.9995470643043518,
        -0.999941349029541
      ],
      "type": "VEC3"
    },
    {
      "bufferView": 1,
      "byteOffset": 3145536,
      "componentType": 5126,
      "count": 12824,
      "max": [
        0.9996739625930786,
        0.9997512102127075
      ],
      "min": [
        0.0002441405667923391,
        0.01782238483428955
      ],
      "type": "VEC2"
    },
    {
      "bufferView": 0,
      "byteOffset": 6071388,
      "componentType": 5125,
      "count": 34755,
      "type": "SCALAR"
    }
  ],
  "asset": {
    "extras": {
      "author": "inthusiastic (https://sketchfab.com/inthusiastic)",
      "license": "SKETCHFAB Standard (https://sketchfab.com/licenses)",
      "source": "https://sketchfab.com/3d-models/greenish-basil-plant-pot-36a98ab992204609851936f63d69fa21",
      "title": "Greenish Basil Plant Pot"
    },
    "generator": "Sketchfab-16.56.0",
    "version": "2.0"
  },
  "bufferViews": [
    {
      "buffer": 0,
      "byteLength": 6210408,
      "name": "floatBufferViews",
      "target": 34963
    },
    {
      "buffer": 0,
      "byteLength": 3248128,
      "byteOffset": 6210408,
      "byteStride": 8,
      "name": "floatBufferViews",
      "target": 34962
    },
    {
      "buffer": 0,
      "byteLength": 9744384,
      "byteOffset": 9458536,
      "byteStride": 12,
      "name": "floatBufferViews",
      "target": 34962
    }
  ],
  "buffers": [
    {
      "byteLength": 19202920,
      "uri": "scene.bin"
    }
  ],
  "extensionsUsed": [
    "KHR_materials_unlit"
  ],
  "images": [
    {
      "uri": "textures/default_tex0_baseColor.jpeg"
    }
  ],
  "materials": [
    {
      "doubleSided": true,
      "extensions": {
        "KHR_materials_unlit": {}
      },
      "name": "default_tex0",
      "pbrMetallicRoughness": {
        "baseColorTexture": {
          "index": 0
        },
        "metallicFactor": 0.0
      }
    }
  ],
  "meshes": [
    {
      "name": "Object_0",
      "primitives": [
        {
          "attributes": {
            "NORMAL": 1,
            "POSITION": 0,
            "TEXCOORD_0": 2
          },
          "indices": 3,
          "material": 0,
          "mode": 4
        }
      ]
    },
    {
      "name": "Object_1",
      "primitives": [
        {
          "attributes": {
            "NORMAL": 5,
            "POSITION": 4,
            "TEXCOORD_0": 6
          },
          "indices": 7,
          "material": 0,
          "mode": 4
        }
      ]
    },
    {
      "name": "Object_2",
      "primitives": [
        {
          "attributes": {
            "NORMAL": 9,
            "POSITION": 8,
            "TEXCOORD_0": 10
          },
          "indices": 11,
          "material": 0,
          "mode": 4
        }
      ]
    },
    {
      "name": "Object_3",
      "primitives": [
        {
          "attributes": {
            "NORMAL": 13,
            "POSITION": 12,
            "TEXCOORD_0": 14
          },
          "indices": 15,
          "material": 0,
          "mode": 4
        }
      ]
    },
    {
      "name": "Object_4",
      "primitives": [
        {
          "attributes": {
            "NORMAL": 17,
            "POSITION": 16,
            "TEXCOORD_0": 18
          },
          "indices": 19,
          "material": 0,
          "mode": 4
        }
      ]
    },
    {
      "name": "Object_5",
      "primitives": [
        {
          "attributes": {
            "NORMAL": 21,
            "POSITION": 20,
            "TEXCOORD_0": 22
          },
          "indices": 23,
          "material": 0,
          "mode": 4
        }
      ]
    },
    {
      "name": "Object_6",
      "primitives": [
        {
          "attributes": {
            "NORMAL": 25,
            "POSITION": 24,
            "TEXCOORD_0": 26
          },
          "indices": 27,
          "material": 0,
          "mode": 4
        }
      ]
    }
  ],
  "nodes": [
    {
      "children": [
        1
      ],
      "matrix": [
        1.0,
        0.0,
        0.0,
        0.0,
        0.0,
        2.220446049250313e-16,
        -1.0,
        0.0,
        0.0,
        1.0,
        2.220446049250313e-16,
        0.0,
        0.0,
        0.0,
        0.0,
        1.0
      ],
      "name": "Sketchfab_model"
    },
    {
      "children": [
        2
      ],
      "name": "root"
    },
    {
      "children": [
        3
      ],
      "matrix": [
        1.0,
        0.0,
        0.0,
        0.0,
        0.0,
        2.220446049250313e-16,
        1.0,
        0.0,
        0.0,
        -1.0,
        2.220446049250313e-16,
        0.0,
        0.0,
        0.0,
        0.0,
        1.0
      ],
      "name": "GLTF_SceneRootNode"
    },
    {
      "children": [
        4,
        5,
        6,
        7,
        8,
        9,
        10
      ],
      "matrix": [
        0.9997972249984741,
        0.02013697288930416,
        1.8757840766769895e-11,
        0.0,
        -0.02013697288930416,
        0.9997972249984741,
        9.313235738162007e-10,
        0.0,
        1.734723475976807e-18,
        -9.315124227526894e-10,
        1.0,
        0.0,
        0.0020476561039686203,
        -0.0003784151340369135,
        -3.5249841240370117e-13,
        1.0
      ],
      "name": "_0"
    },
    {
      "mesh": 0,
      "name": "Object_4"
    },
    {
      "mesh": 1,
      "name": "Object_5"
    },
    {
      "mesh": 2,
      "name": "Object_6"
    },
    {
      "mesh": 3,
      "name": "Object_7"
    },
    {
      "mesh": 4,
      "name": "Object_8"
    },
    {
      "mesh": 5,
      "name": "Object_9"
    },
    {
      "mesh": 6,
      "name": "Object_10"
    }
  ],
  "samplers": [
    {
      "magFilter": 9729,
      "minFilter": 9729,
      "wrapS": 33071,
      "wrapT": 33071
    }
  ],
  "scene": 0,
  "scenes": [
    {
      "name": "Sketchfab_Scene",
      "nodes": [
        0
      ]
    }
  ],
  "textures": [
    {
      "sampler": 0,
      "source": 0
    }
  ]
}
